# xmcd
#
# Track frame offsets: 
#        150
#        15619
#        38037
#        54082
#        87279
#        104752
#        136915
#        162342
#
# Disc length: 2500 seconds
#
# Revision: 0
# Processed by: cddbd v1.5.2PL0 Copyright (c) Steve Scherf et al.
# Submitted via: ExactAudioCopy v1.2
#
DISCID=5d09c208
DTITLE=Big Jay McNeely - Honkin' and Jivin' At the Palomino
DYEAR=2017
DGENRE=Blues
TTITLE0=Palomino Hop
TTITLE1=I Can't Stop Loving You
TTITLE2=All That Wine Is Gone
TTITLE3=There Is Something on Your Mind
TTITLE4=Pretty Girls Everywhere
TTITLE5=Honky Tonk
TTITLE6=Young Girl Blues
TTITLE7=Big Jay Shuffle
EXTD=
EXTT0=
EXTT1=
EXTT2=
EXTT3=
EXTT4=
EXTT5=
EXTT6=
EXTT7=
PLAYORDER=
